# Blender v2.78 (sub 0) OBJ File: 'components.blend'
# www.blender.org
v 1.896070 0.587929 -2.355976
v 1.896070 4.380072 2.355976
v -2.351548 0.587929 1.896073
v -2.351548 4.380072 -1.896073
v -2.351548 4.380072 1.896073
v -1.900701 4.874915 -1.900701
v -1.900701 4.874915 1.900701
v -1.896072 0.587929 -2.355976
v -1.896072 4.380072 2.355976
v 1.896070 0.587929 2.355976
v 1.896070 4.380072 -2.355976
v -2.351548 0.587929 -1.896073
v 1.900699 4.874915 -1.900701
v 1.900699 4.874915 1.900701
v 2.351546 0.587929 -1.896073
v 2.351547 0.587929 1.896073
v 2.351546 4.380072 -1.896073
v 2.351547 4.380072 1.896073
v -1.896072 0.587929 2.355976
v -1.896072 4.380072 -2.355976
v 2.434326 0.000000 2.434324
v 2.434326 0.049675 -2.484002
v 2.434326 0.049675 2.483998
v 2.434326 4.918325 -2.484002
v 2.434326 4.918325 2.483998
v 2.434326 4.968000 -2.434328
v 2.434326 4.968000 2.434324
v 2.453582 0.587929 -1.896075
v 2.453582 0.587929 1.896070
v 2.453582 4.380072 -1.896075
v 2.453582 4.380072 1.896070
v 2.481596 0.568185 -1.915818
v 2.481596 0.568185 1.915813
v 2.481596 4.399817 -1.915818
v 2.481596 4.399817 1.915813
v 2.484000 0.049675 -2.434328
v 2.484000 0.049675 2.434324
v 2.484000 4.918325 -2.434328
v 2.484000 4.918325 2.434324
v -2.484000 0.049675 -2.434328
v -2.484000 0.049675 2.434324
v -2.484000 4.918325 -2.434328
v -2.484000 4.918325 2.434324
v -2.481596 0.568185 -1.915818
v -2.481596 0.568185 1.915813
v -2.481596 4.399817 -1.915818
v -2.481596 4.399817 1.915813
v -2.453582 0.587929 -1.896075
v -2.453582 0.587929 1.896070
v -2.453582 4.380072 -1.896075
v -2.453582 4.380072 1.896070
v -2.434326 0.000000 -2.434328
v -2.434326 0.000000 2.434324
v -2.434326 0.049675 -2.484002
v -2.434326 0.049675 2.483998
v -2.434326 4.918325 -2.484002
v -2.434326 4.918325 2.483998
v -2.434326 4.968000 -2.434328
v -2.434326 4.968000 2.434324
v -1.920445 4.968000 -1.920446
v -1.920445 4.968000 1.920442
v -1.915815 0.568185 -2.485867
v -1.915815 0.568185 2.485862
v -1.915815 4.399817 -2.485867
v -1.915815 4.399817 2.485862
v -1.900700 4.940077 -1.900704
v -1.900700 4.940077 1.900699
v -1.896071 0.587929 -2.458013
v -1.896071 0.587929 2.458008
v -1.896071 4.380072 -2.458013
v -1.896071 4.380072 2.458008
v 1.896071 0.587929 -2.458013
v 1.896071 0.587929 2.458008
v 1.896071 4.380072 -2.458013
v 1.896071 4.380072 2.458008
v 1.900700 4.940077 -1.900704
v 1.900700 4.940077 1.900699
v 1.915815 0.568185 -2.485867
v 1.915815 0.568185 2.485862
v 1.915815 4.399817 -2.485867
v 1.915815 4.399817 2.485862
v 1.920445 4.968000 -1.920446
v 1.920445 4.968000 1.920442
v 2.434326 0.000000 -2.434328
vn 0.0000 0.0000 1.0000
vn -1.0000 0.0000 0.0000
vn 1.0000 0.0000 -0.0000
vn 0.0000 1.0000 -0.0000
vn 0.0000 0.0000 -1.0000
vn 0.0000 -1.0000 0.0000
vn -0.7071 -0.7071 0.0000
vn 0.0000 -0.7071 0.7071
vn -0.7071 0.0000 0.7071
vn 0.7071 -0.7071 0.0000
vn 0.7071 0.0000 0.7071
vn -0.7071 0.7071 0.0000
vn 0.0000 0.7071 0.7071
vn 0.7071 0.7071 0.0000
vn -0.7071 0.0000 -0.7071
vn 0.0000 0.7071 -0.7071
vn 0.7071 0.0000 -0.7071
vn 0.0000 -0.7071 -0.7071
vn -0.5774 -0.5773 0.5774
vn 0.5774 -0.5773 0.5774
vn -0.5773 0.5773 0.5774
vn 0.5773 0.5773 0.5774
vn -0.5773 0.5773 -0.5774
vn 0.5773 0.5773 -0.5774
vn -0.5774 -0.5773 -0.5774
vn 0.5774 -0.5773 -0.5774
vn 0.0036 0.0000 1.0000
vn 0.0000 0.0036 1.0000
vn -0.0036 0.0000 1.0000
vn 0.0000 -0.0036 1.0000
vn -1.0000 -0.0046 0.0000
vn -1.0000 0.0000 0.0046
vn -1.0000 0.0046 0.0000
vn -1.0000 0.0000 -0.0046
vn 1.0000 0.0000 0.0046
vn 1.0000 -0.0046 0.0000
vn 1.0000 0.0000 -0.0046
vn 1.0000 0.0046 0.0000
vn 0.0036 0.0000 -1.0000
vn 0.0000 -0.0036 -1.0000
vn -0.0036 0.0000 -1.0000
vn 0.0000 0.0036 -1.0000
vn 0.0000 0.8158 0.5783
vn -0.8158 0.0000 0.5783
vn 0.0000 -0.8158 0.5783
vn 0.8158 0.0000 0.5783
vn -0.5761 0.0000 -0.8174
vn -0.5761 -0.8174 0.0000
vn -0.5761 0.0000 0.8174
vn -0.5761 0.8174 0.0000
vn 0.5761 0.8174 0.0000
vn 0.5761 0.0000 0.8174
vn 0.5761 -0.8174 0.0000
vn 0.5761 0.0000 -0.8174
vn 0.0000 -0.8158 -0.5783
vn -0.8158 0.0000 -0.5783
vn 0.0000 0.8158 -0.5783
vn 0.8158 0.0000 -0.5783
vn 0.0000 0.5773 -0.8165
vn -0.8165 0.5774 0.0000
vn 0.0000 0.5773 0.8165
vn 0.8165 0.5774 0.0000
s off
f 2//1 19//1 10//1
f 4//2 3//2 5//2
f 17//3 16//3 15//3
f 13//4 7//4 14//4
f 1//5 20//5 11//5
f 53//6 84//6 21//6
f 41//7 52//7 53//7
f 23//8 53//8 21//8
f 55//9 43//9 41//9
f 21//10 36//10 37//10
f 37//11 25//11 23//11
f 59//12 42//12 43//12
f 57//13 27//13 59//13
f 39//14 26//14 27//14
f 56//15 40//15 42//15
f 58//16 24//16 56//16
f 38//17 22//17 24//17
f 54//18 84//18 52//18
f 41//19 53//19 55//19
f 21//20 37//20 23//20
f 59//21 43//21 57//21
f 39//22 27//22 25//22
f 56//23 42//23 58//23
f 38//24 24//24 26//24
f 52//25 40//25 54//25
f 36//26 84//26 22//26
f 25//27 79//27 23//27
f 25//28 65//28 81//28
f 57//29 63//29 65//29
f 23//30 63//30 55//30
f 43//31 46//31 47//31
f 42//32 44//32 46//32
f 41//33 44//33 40//33
f 43//34 45//34 41//34
f 38//35 32//35 36//35
f 38//36 35//36 34//36
f 39//37 33//37 35//37
f 36//38 33//38 37//38
f 24//39 78//39 80//39
f 54//40 78//40 22//40
f 56//41 62//41 54//41
f 56//42 80//42 64//42
f 75//2 10//2 73//2
f 71//6 2//6 75//6
f 69//3 9//3 71//3
f 69//4 10//4 19//4
f 51//6 4//6 5//6
f 50//1 12//1 4//1
f 49//4 12//4 48//4
f 51//5 3//5 49//5
f 30//1 15//1 28//1
f 31//6 17//6 30//6
f 31//5 16//5 18//5
f 29//4 15//4 16//4
f 72//2 11//2 74//2
f 68//4 1//4 72//4
f 70//3 8//3 68//3
f 70//6 11//6 20//6
f 26//4 83//4 27//4
f 58//4 82//4 26//4
f 59//4 60//4 58//4
f 27//4 61//4 59//4
f 77//2 13//2 14//2
f 66//1 13//1 76//1
f 67//3 6//3 66//3
f 67//5 14//5 7//5
f 73//43 63//43 79//43
f 79//44 75//44 73//44
f 81//45 71//45 75//45
f 71//46 63//46 69//46
f 51//47 45//47 47//47
f 47//48 50//48 51//48
f 50//49 44//49 48//49
f 44//50 49//50 48//50
f 28//51 33//51 32//51
f 32//52 30//52 28//52
f 34//53 31//53 30//53
f 31//54 33//54 29//54
f 74//55 64//55 80//55
f 74//56 78//56 72//56
f 78//57 68//57 72//57
f 62//58 70//58 68//58
f 77//59 61//59 83//59
f 83//60 76//60 77//60
f 82//61 66//61 76//61
f 60//62 67//62 66//62
f 2//1 9//1 19//1
f 4//2 12//2 3//2
f 17//3 18//3 16//3
f 13//4 6//4 7//4
f 1//5 8//5 20//5
f 53//6 52//6 84//6
f 41//7 40//7 52//7
f 23//8 55//8 53//8
f 55//9 57//9 43//9
f 21//10 84//10 36//10
f 37//11 39//11 25//11
f 59//12 58//12 42//12
f 57//13 25//13 27//13
f 39//14 38//14 26//14
f 56//15 54//15 40//15
f 58//16 26//16 24//16
f 38//17 36//17 22//17
f 54//18 22//18 84//18
f 25//27 81//27 79//27
f 25//28 57//28 65//28
f 57//29 55//29 63//29
f 23//30 79//30 63//30
f 43//31 42//31 46//31
f 42//32 40//32 44//32
f 41//33 45//33 44//33
f 43//34 47//34 45//34
f 38//35 34//35 32//35
f 38//36 39//36 35//36
f 39//37 37//37 33//37
f 36//38 32//38 33//38
f 24//39 22//39 78//39
f 54//40 62//40 78//40
f 56//41 64//41 62//41
f 56//42 24//42 80//42
f 75//2 2//2 10//2
f 71//6 9//6 2//6
f 69//3 19//3 9//3
f 69//4 73//4 10//4
f 51//6 50//6 4//6
f 50//1 48//1 12//1
f 49//4 3//4 12//4
f 51//5 5//5 3//5
f 30//1 17//1 15//1
f 31//6 18//6 17//6
f 31//5 29//5 16//5
f 29//4 28//4 15//4
f 72//2 1//2 11//2
f 68//4 8//4 1//4
f 70//3 20//3 8//3
f 70//6 74//6 11//6
f 26//4 82//4 83//4
f 58//4 60//4 82//4
f 59//4 61//4 60//4
f 27//4 83//4 61//4
f 77//2 76//2 13//2
f 66//1 6//1 13//1
f 67//3 7//3 6//3
f 67//5 77//5 14//5
f 73//43 69//43 63//43
f 79//44 81//44 75//44
f 81//45 65//45 71//45
f 71//46 65//46 63//46
f 51//47 49//47 45//47
f 47//48 46//48 50//48
f 50//49 46//49 44//49
f 44//50 45//50 49//50
f 28//51 29//51 33//51
f 32//52 34//52 30//52
f 34//53 35//53 31//53
f 31//54 35//54 33//54
f 74//55 70//55 64//55
f 74//56 80//56 78//56
f 78//57 62//57 68//57
f 62//58 64//58 70//58
f 77//59 67//59 61//59
f 83//60 82//60 76//60
f 82//61 60//61 66//61
f 60//62 61//62 67//62
