# Blender v2.78 (sub 0) OBJ File: 'components.blend'
# www.blender.org
v -5.487267 -6.730371 0.021571
v 5.474780 -6.730371 0.021572
v -5.487267 -4.035211 0.021571
v 5.474780 -4.035211 0.021572
v -5.487267 -3.495862 0.021571
v 5.474780 -3.495862 0.021572
v -5.487267 -0.077212 0.021571
v 5.474780 -0.077212 0.021572
v -5.487267 0.751900 0.021571
v 5.474780 0.751900 0.021572
v -5.487267 7.057854 0.021571
v 5.474780 7.057854 0.021572
v -5.487267 -6.730371 -0.256233
v 5.474780 -6.730371 -0.256232
v -5.487267 -4.035211 -0.256233
v 5.474780 -4.035211 -0.256232
v -5.487267 -3.495862 -0.256233
v 5.474780 -3.495862 -0.256232
v -5.487267 -0.077212 -0.256233
v 5.474780 -0.077212 -0.256232
v -5.487267 0.751900 -0.256233
v 5.474780 0.751900 -0.256232
v -5.487267 7.057854 -0.256233
v 5.474780 7.057854 -0.256232
v -5.487267 -6.730371 -0.438124
v 5.474780 -6.730371 -0.438123
v -5.487267 -4.035211 -0.438124
v 5.474780 -4.035211 -0.438123
v -5.487267 -3.495862 -0.438124
v 5.474780 -3.495862 -0.438123
v -5.487267 -0.077212 -0.438124
v 5.474780 -0.077212 -0.438123
v -5.487267 0.751900 -0.438124
v 5.474780 0.751900 -0.438123
v -5.487267 7.057854 -0.438124
v 5.474780 7.057854 -0.438123
v -5.487267 -6.630701 -0.566733
v 5.474780 -6.630701 -0.566732
v -5.487267 -6.489745 -0.566733
v 5.474780 -6.489745 -0.566732
v -5.487267 -5.846829 -0.566733
v 5.474780 -5.846829 -0.566732
v -5.487267 -4.897674 -0.566733
v 5.474780 -4.897674 -0.566732
v -5.487267 -4.275837 -0.566733
v 5.474780 -4.275837 -0.566732
v -5.487267 -4.134882 -0.566733
v 5.474780 -4.134882 -0.566732
v -5.487267 -3.396192 -0.566733
v 5.474780 -3.396192 -0.566732
v -5.487267 -3.255237 -0.566733
v 5.474780 -3.255237 -0.566732
v -5.487267 -2.257296 -0.566733
v 5.474780 -2.257296 -0.566732
v -5.487267 -1.315779 -0.566733
v 5.474780 -1.315779 -0.566732
v -5.487267 -0.317838 -0.566733
v 5.474780 -0.317838 -0.566732
v -5.487267 -0.176883 -0.566733
v 5.474780 -0.176883 -0.566732
v -5.487267 0.851571 -0.566733
v 5.474780 0.851571 -0.566732
v -5.487267 0.992526 -0.566733
v 5.474780 0.992526 -0.566732
v -5.487267 2.892110 -0.566733
v 5.474780 2.892110 -0.566732
v -5.487267 5.259557 -0.566733
v 5.474780 5.259557 -0.566732
v -5.487267 6.817228 -0.566733
v 5.474780 6.817228 -0.566732
v -5.487267 6.958184 -0.566733
v 5.474780 6.958184 -0.566732
v 5.451268 6.234617 -0.649086
v -5.451271 1.608107 -0.561033
v 5.451268 1.608107 -0.561033
v -5.451271 6.224111 -0.561033
v 5.451268 6.224111 -0.561033
v -5.451271 1.597603 -0.570812
v 5.451268 1.597603 -0.570812
v -5.460639 1.608107 -0.570812
v 5.460621 1.608107 -0.570812
v -5.460639 6.224111 -0.570812
v 5.460621 6.224111 -0.570812
v -5.451271 6.234617 -0.570812
v 5.451268 6.234617 -0.570812
v -5.451271 1.597603 -0.649086
v 5.451268 1.597603 -0.649086
v -5.460639 1.608107 -0.649086
v 5.460621 1.608107 -0.649086
v -5.460639 6.224111 -0.649086
v 5.460621 6.224111 -0.649086
v -5.451271 6.234617 -0.649086
v -5.451271 1.608107 -0.658865
v 5.451268 1.608107 -0.658864
v -5.451271 6.224111 -0.658865
v 5.451268 6.224111 -0.658864
vn 0.0000 1.0000 0.0000
vn 0.0000 0.7904 -0.6126
vn 0.0000 0.0000 -1.0000
vn 0.0000 -0.7904 -0.6126
vn 0.0000 -1.0000 0.0000
vn -0.0000 0.0000 1.0000
vn -1.0000 0.0000 0.0000
vn 1.0000 0.0000 0.0000
vn -0.7221 0.0000 0.6918
vn -0.0000 -0.6814 0.7319
vn -0.7463 -0.6657 0.0000
vn 0.7227 0.0000 0.6912
vn 0.7468 -0.6650 0.0000
vn -0.7221 0.0000 -0.6918
vn 0.0000 -0.6814 -0.7319
vn 0.7227 0.0000 -0.6912
vn -0.7463 0.6656 0.0000
vn 0.0000 0.6813 -0.7320
vn 0.7469 0.6649 0.0000
vn -0.0000 0.6814 0.7320
vn -0.6071 -0.5415 0.5816
vn 0.6077 -0.5411 0.5812
vn -0.6071 -0.5415 -0.5816
vn 0.6077 -0.5411 -0.5812
vn -0.6071 0.5414 -0.5816
vn 0.6078 0.5410 -0.5813
vn -0.6071 0.5414 0.5816
vn 0.6078 0.5410 0.5813
vn -0.7463 -0.6656 0.0000
vn -0.7464 0.6655 0.0000
vn 0.0000 0.6814 -0.7320
vn -0.0000 0.6813 0.7320
s off
f 31//1 20//1 32//1
f 60//2 31//2 32//2
f 57//3 60//3 58//3
f 56//3 57//3 58//3
f 53//3 56//3 54//3
f 51//3 54//3 52//3
f 49//3 52//3 50//3
f 29//4 50//4 30//4
f 17//5 30//5 18//5
f 5//5 18//5 6//5
f 20//1 7//1 8//1
f 27//1 16//1 28//1
f 47//2 28//2 48//2
f 45//3 48//3 46//3
f 43//3 46//3 44//3
f 41//3 44//3 42//3
f 42//3 39//3 41//3
f 37//3 40//3 38//3
f 25//4 38//4 26//4
f 13//5 26//5 14//5
f 1//5 14//5 2//5
f 15//1 4//1 16//1
f 35//1 24//1 36//1
f 71//2 36//2 72//2
f 72//3 69//3 71//3
f 70//3 67//3 69//3
f 65//3 68//3 66//3
f 63//3 66//3 64//3
f 62//3 63//3 64//3
f 33//4 62//4 34//4
f 21//5 34//5 22//5
f 9//5 22//5 10//5
f 24//1 11//1 12//1
f 74//6 77//6 76//6
f 78//5 87//5 79//5
f 80//7 90//7 88//7
f 81//8 91//8 83//8
f 93//3 96//3 94//3
f 92//1 85//1 73//1
f 76//9 80//9 74//9
f 79//10 74//10 78//10
f 88//11 78//11 80//11
f 83//12 75//12 81//12
f 87//13 81//13 79//13
f 90//14 93//14 88//14
f 94//15 86//15 93//15
f 96//16 89//16 94//16
f 82//17 92//17 90//17
f 73//18 95//18 92//18
f 85//19 91//19 73//19
f 77//20 84//20 76//20
f 80//21 78//21 74//21
f 75//22 79//22 81//22
f 93//23 86//23 88//23
f 89//24 87//24 94//24
f 92//25 95//25 90//25
f 91//26 96//26 73//26
f 76//27 84//27 82//27
f 83//28 85//28 77//28
f 31//1 19//1 20//1
f 60//2 59//2 31//2
f 57//3 59//3 60//3
f 56//3 55//3 57//3
f 53//3 55//3 56//3
f 51//3 53//3 54//3
f 49//3 51//3 52//3
f 29//4 49//4 50//4
f 17//5 29//5 30//5
f 5//5 17//5 18//5
f 20//1 19//1 7//1
f 27//1 15//1 16//1
f 47//2 27//2 28//2
f 45//3 47//3 48//3
f 43//3 45//3 46//3
f 41//3 43//3 44//3
f 42//3 40//3 39//3
f 37//3 39//3 40//3
f 25//4 37//4 38//4
f 13//5 25//5 26//5
f 1//5 13//5 14//5
f 15//1 3//1 4//1
f 35//1 23//1 24//1
f 71//2 35//2 36//2
f 72//3 70//3 69//3
f 70//3 68//3 67//3
f 65//3 67//3 68//3
f 63//3 65//3 66//3
f 62//3 61//3 63//3
f 33//4 61//4 62//4
f 21//5 33//5 34//5
f 9//5 21//5 22//5
f 24//1 23//1 11//1
f 74//6 75//6 77//6
f 78//5 86//5 87//5
f 80//7 82//7 90//7
f 81//8 89//8 91//8
f 93//3 95//3 96//3
f 92//1 84//1 85//1
f 76//9 82//9 80//9
f 79//10 75//10 74//10
f 88//29 86//29 78//29
f 83//12 77//12 75//12
f 87//13 89//13 81//13
f 90//14 95//14 93//14
f 94//15 87//15 86//15
f 96//16 91//16 89//16
f 82//30 84//30 92//30
f 73//31 96//31 95//31
f 85//19 83//19 91//19
f 77//32 85//32 84//32
