# Blender v2.77 (sub 0) OBJ File: 'RoadCover.blend'
# www.blender.org
v 1.610456 0.277062 -1.462889
v -0.083713 0.293202 -2.124707
v -0.081155 0.291846 -2.083798
v 1.580036 0.276040 -1.435673
v 2.184037 0.199440 0.211553
v 2.142466 0.199909 0.206983
v -0.062186 0.190681 2.079130
v 1.491263 0.203110 1.569510
v 1.460804 0.203428 1.541770
v -0.060068 0.191321 2.038203
v -2.089072 0.209443 -0.198633
v -1.573316 0.206979 1.410847
v -1.542975 0.207302 1.382928
v -2.047467 0.209718 -0.195218
v -1.516828 0.275989 -1.418891
v -1.486377 0.274968 -1.391721
v 1.610456 0.168734 -1.465531
v -0.083713 0.184874 -2.127350
v -0.083713 0.203938 -2.126885
v 1.610456 0.187799 -1.465066
v -0.061841 0.173267 -1.777104
v 1.349961 0.159987 -1.232530
v 1.349961 0.178957 -1.232067
v -0.061841 0.192238 -1.776641
v 2.184037 0.091112 0.208911
v 2.184037 0.110177 0.209376
v 1.827948 0.095132 0.169780
v 1.827948 0.114103 0.170243
v -0.062186 0.082354 2.076488
v 1.491263 0.094782 1.566869
v 1.491263 0.113847 1.567333
v -0.062186 0.101418 2.076953
v 1.230414 0.097508 1.329378
v -0.043900 0.087833 1.726092
v -0.043900 0.106804 1.726555
v 1.230414 0.116479 1.329841
v -2.089072 0.101115 -0.201275
v -1.573316 0.098651 1.408205
v -1.573316 0.117716 1.408670
v -2.089072 0.120180 -0.200810
v -1.313547 0.101415 1.169191
v -1.732965 0.103468 -0.172042
v -1.732965 0.122439 -0.171580
v -1.313547 0.120385 1.169653
v -1.516828 0.167661 -1.421533
v -1.516828 0.186725 -1.421068
v -1.256098 0.158923 -1.188923
v -1.256098 0.177894 -1.188460
v -0.045941 0.195553 1.767613
v -1.342383 0.209436 1.198351
v -1.772489 0.211535 -0.172644
v -1.285028 0.268220 -1.212090
v -0.064249 0.282883 -1.813323
v 1.378873 0.269285 -1.255741
v 1.867453 0.203014 0.176765
v 1.259363 0.205534 1.358369
v -0.043900 0.196161 1.728733
v -1.313547 0.209742 1.171832
v -1.732965 0.211796 -0.169401
v -1.256098 0.267251 -1.186282
v -0.061841 0.281595 -1.774462
v 1.349961 0.268314 -1.229888
v 1.827948 0.203460 0.172422
v 1.230414 0.205836 1.332020
v -1.313547 0.194601 1.171463
v -0.043900 0.181019 1.728365
v 1.230414 0.190694 1.331651
v 1.827948 0.188318 0.172053
v 1.349961 0.253173 -1.230257
v -0.061841 0.266453 -1.774831
v -1.256098 0.252109 -1.186651
v -1.732965 0.196654 -0.169770
v -1.573316 0.179358 1.410173
v -0.062186 0.163060 2.078457
v -2.089072 0.181822 -0.199307
v -1.516828 0.248368 -1.419564
v -0.083713 0.265581 -2.125381
v 1.610456 0.249441 -1.463562
v 2.184037 0.171819 0.210880
v 1.491263 0.175489 1.568838
v 1.349961 0.265128 -1.229966
v -0.061841 0.278409 -1.774540
v -0.061841 0.258887 -1.775016
v 1.349961 0.245607 -1.230442
v 1.827948 0.200273 0.172344
v 1.827948 0.180752 0.171868
v -0.043900 0.192975 1.728656
v 1.230414 0.202650 1.331942
v 1.230414 0.183129 1.331466
v -0.043900 0.173454 1.728180
v -1.732965 0.208609 -0.169479
v -1.313547 0.206556 1.171754
v -1.313547 0.187035 1.171278
v -1.732965 0.189088 -0.169955
v -1.256098 0.264064 -1.186360
v -1.256098 0.244543 -1.186836
v -0.043900 -0.034358 1.723111
v -1.313547 -0.020777 1.166210
v -1.732965 -0.018723 -0.175023
v -1.256098 0.036731 -1.191904
v -0.061841 0.051075 -1.780084
v 1.349961 0.037795 -1.235510
v 1.827948 -0.027059 0.166800
v 1.230414 -0.024683 1.326398
v 1.228968 0.398688 -1.118487
v 1.209439 0.412277 -1.099683
v 1.635999 0.354401 0.155415
v 1.662467 0.339917 0.157675
v -0.051807 0.410595 -1.608461
v -0.056250 0.424186 -1.583847
v -1.134955 0.397741 -1.074909
v -1.116135 0.410950 -1.056686
v 1.091422 0.355965 1.205709
v 1.108872 0.341672 1.225356
v -0.035788 0.333123 1.569042
v -0.033917 0.347961 1.543468
v -1.172998 0.359904 1.046486
v -1.193048 0.345486 1.064080
v -1.567405 0.347452 -0.152745
v -1.541434 0.361853 -0.151031
v -0.042041 0.359098 -0.033322
v 1.214078 0.012792 1.312521
v -0.042828 0.003268 1.702101
v -1.297333 0.016686 1.152186
v -1.710709 0.018728 -0.172314
v -1.239810 0.073488 -1.176456
v -0.060480 0.087631 -1.757289
v 1.333698 0.074536 -1.220059
v 1.805701 0.010499 0.165286
v 1.115659 0.284772 1.230104
v -0.036234 0.276160 1.576748
v -1.199787 0.288591 1.068888
v -1.576636 0.290562 -0.154878
v -1.141706 0.341139 -1.082326
v -0.052359 0.354076 -1.618925
v 1.235715 0.342093 -1.125905
v 1.671698 0.282982 0.157294
vn 0.1063 0.6612 -0.7426
vn 0.0012 0.9992 0.0389
vn 0.4940 0.7426 -0.4522
vn 0.0086 0.9997 0.0240
vn 0.6801 0.7317 0.0451
vn -0.0368 0.7223 0.6906
vn 0.0033 1.0000 0.0081
vn 0.0004 0.9999 0.0156
vn 0.6083 0.6307 0.4818
vn -0.6782 0.7348 0.0004
vn -0.0016 1.0000 0.0098
vn -0.0086 0.9997 0.0246
vn -0.4542 0.6425 0.6172
vn -0.4251 0.6760 -0.6019
vn 0.0005 0.9994 0.0334
vn -0.0036 0.9992 0.0411
vn -0.0132 0.0244 -0.9996
vn 0.7188 0.0169 -0.6950
vn 0.7198 0.0168 -0.6939
vn -0.7201 -0.0172 0.6937
vn 0.0181 -0.0244 0.9995
vn 0.0167 -0.0244 0.9996
vn 0.9993 -0.0010 0.0378
vn 0.9992 -0.0012 0.0388
vn -0.9989 0.0011 -0.0477
vn -0.7211 -0.0141 0.6927
vn -0.0518 -0.0243 0.9984
vn 0.6402 -0.0187 0.7680
vn 0.0626 0.0242 -0.9977
vn -0.6408 0.0187 -0.7675
vn -0.6417 0.0187 -0.7667
vn 0.6415 -0.0188 0.7669
vn -0.9989 0.0009 -0.0462
vn -0.7491 -0.0163 0.6622
vn -0.9998 0.0004 -0.0180
vn -0.9998 0.0004 -0.0193
vn 0.7490 0.0159 -0.6623
vn 0.9997 -0.0007 0.0259
vn 0.7480 0.0161 -0.6635
vn -0.7437 -0.0232 0.6681
vn 0.0557 0.0174 -0.9983
vn -0.6933 0.0176 -0.7205
vn -0.0426 -0.0049 -0.9991
vn 0.6959 -0.0176 0.7180
vn 0.6951 -0.0175 0.7187
vn -0.6948 0.0176 -0.7190
vn 0.9997 -0.0009 0.0237
vn -0.0017 1.0000 0.0098
vn -0.0086 0.9997 0.0242
vn -0.0026 0.9992 0.0404
vn 0.0004 0.9995 0.0331
vn 0.0085 0.9997 0.0248
vn 0.0023 1.0000 0.0089
vn 0.0005 0.9999 0.0157
vn 0.2293 0.9531 -0.1978
vn 0.3306 0.9431 0.0347
vn 0.2174 0.9389 0.2669
vn 0.0070 0.9361 0.3516
vn -0.2147 0.9449 0.2472
vn -0.3287 0.9444 0.0054
vn -0.1993 0.9513 -0.2353
vn 0.3378 0.7097 -0.6183
vn 0.0625 0.0243 -0.9977
vn -0.6379 0.0188 -0.7699
vn -0.9988 0.0012 -0.0482
vn -0.7166 -0.0170 0.6973
vn 0.0185 -0.0243 0.9995
vn 0.6921 -0.0176 0.7216
vn 0.9996 -0.0007 0.0267
vn 0.7450 0.0156 -0.6669
vn -0.7463 -0.0162 0.6654
vn -0.9998 0.0005 -0.0187
vn -0.6915 0.0170 -0.7222
vn -0.0130 0.0244 -0.9996
vn 0.7168 0.0170 -0.6971
vn 0.9993 -0.0009 0.0382
vn 0.6377 -0.0191 0.7700
vn -0.0497 -0.0223 0.9985
vn 0.0175 -0.0243 0.9996
vn -0.7163 -0.0170 0.6976
vn -0.7156 -0.0170 0.6983
vn -0.9988 0.0012 -0.0481
vn -0.6369 0.0188 -0.7707
vn 0.0627 0.0244 -0.9977
vn -0.6429 0.0116 -0.7658
vn 0.9996 -0.0004 0.0266
vn 0.7450 0.0163 -0.6669
vn 0.9996 -0.0006 0.0267
vn 0.7449 0.0165 -0.6670
vn 0.6912 -0.0175 0.7224
vn 0.0447 -0.0510 0.9977
vn 0.7137 -0.0479 0.6989
vn 0.7455 -0.0676 -0.6631
vn 0.9938 0.1089 0.0231
vn 0.6908 -0.1170 0.7135
vn 0.0119 -0.0714 0.9974
vn -0.7182 -0.1020 0.6883
vn -0.9930 0.1109 -0.0400
vn -0.6461 -0.0167 -0.7631
vn -0.8965 0.4373 0.0705
vn 0.5085 0.5173 -0.6884
vn 0.0173 0.9995 0.0252
vn 0.9196 0.3888 0.0567
vn 0.1942 0.8661 -0.4606
vn -0.0100 0.3983 -0.9172
vn -0.0082 0.9999 0.0072
vn -0.6393 0.4156 -0.6469
vn 0.0085 0.9983 0.0581
vn 0.5860 0.3808 0.7152
vn 0.1010 0.4726 0.8755
vn -0.0034 0.9999 0.0110
vn -0.6882 0.3809 0.6175
vn 0.4628 0.8747 0.1442
vn -0.2995 0.8777 0.3740
vn -0.0168 0.9997 0.0152
vn -0.9206 0.3903 -0.0157
vn 0.0005 0.9997 0.0249
vn 0.5853 0.4314 0.6865
vn -0.0604 0.4273 0.9021
vn -0.8915 0.4528 -0.0112
vn -0.6341 0.4686 0.6150
vn -0.6273 0.4627 -0.6264
vn 0.6489 0.4630 -0.6038
vn 0.8902 0.4521 0.0563
vn -0.0763 0.4862 -0.8705
vn 0.5779 0.3898 0.7169
vn -0.0638 0.3827 0.9217
vn -0.6850 0.3957 0.6117
vn -0.9124 0.4092 -0.0115
vn -0.6336 0.4196 -0.6500
vn -0.0143 0.4289 -0.9033
vn 0.6557 0.4223 -0.6258
vn 0.9103 0.4107 0.0515
s 1
f 2//1 4//2 1//3
f 1//3 6//4 5//5
f 7//6 9//7 10//8
f 8//9 6//4 9//7
f 11//10 13//11 14//12
f 7//6 13//11 12//13
f 15//14 3//15 2//1
f 15//14 14//12 16//16
f 18//17 20//18 17//19
f 22//20 24//21 21//22
f 17//19 26//23 25//24
f 22//20 28//25 23//26
f 29//27 31//28 32//27
f 34//29 36//30 33//31
f 30//32 26//23 31//28
f 33//31 28//25 27//33
f 38//34 40//35 37//36
f 41//37 43//38 44//39
f 29//27 39//40 38//34
f 34//29 44//39 35//41
f 18//17 46//42 19//43
f 47//44 24//21 48//45
f 45//46 40//35 46//42
f 47//44 43//38 42//47
f 10//8 50//48 13//11
f 14//12 50//48 51//49
f 16//16 51//49 52//50
f 16//16 53//51 3//15
f 3//15 54//2 4//2
f 4//2 55//52 6//4
f 9//7 55//52 56//53
f 10//8 56//53 49//54
f 49//54 58//55 50//48
f 51//49 58//55 59//56
f 52//50 59//56 60//57
f 52//50 61//58 53//51
f 53//51 62//59 54//2
f 54//2 63//60 55//52
f 56//53 63//60 64//61
f 49//54 64//61 57//62
f 44//39 66//63 35//41
f 35//41 67//64 36//30
f 36//30 68//65 28//25
f 23//26 68//65 69//66
f 23//26 70//67 24//21
f 48//45 70//67 71//68
f 48//45 72//69 43//38
f 44//39 72//69 65//70
f 73//71 7//6 12//13
f 73//71 11//10 75//72
f 76//73 11//10 15//14
f 76//73 2//1 77//74
f 77//74 1//3 78//75
f 78//75 5//5 79//76
f 80//77 5//5 8//9
f 80//77 7//6 74//78
f 32//27 73//71 39//40
f 39//40 75//72 40//35
f 46//42 75//72 76//73
f 46//42 77//74 19//43
f 19//43 78//75 20//18
f 20//18 79//76 26//23
f 31//28 79//76 80//77
f 32//27 80//77 74//78
f 65//70 59//56 58//55
f 65//70 57//62 66//63
f 66//63 64//61 67//64
f 67//64 63//60 68//65
f 69//66 63//60 62//59
f 69//66 61//58 70//67
f 70//67 60//57 71//68
f 71//68 59//56 72//69
f 82//79 84//80 81//81
f 85//82 84//80 86//65
f 88//83 90//63 87//84
f 85//82 89//85 88//83
f 91//86 93//87 94//88
f 87//84 93//87 92//89
f 95//90 83//91 82//79
f 91//86 96//92 95//90
f 90//63 98//93 93//87
f 94//88 98//93 99//94
f 94//88 100//95 96//92
f 96//92 101//96 83//91
f 83//91 102//97 84//80
f 86//65 102//97 103//98
f 86//65 104//99 89//85
f 89//85 97//100 90//63
f 105//101 107//102 108//103
f 106//104 109//105 110//106
f 110//106 111//107 112//108
f 107//102 114//109 108//103
f 115//110 117//111 118//112
f 115//110 113//113 116//114
f 120//115 111//107 119//116
f 119//116 117//111 120//115
f 106//104 121//117 107//102
f 121//117 113//113 107//102
f 121//117 117//111 116//114
f 112//108 121//117 110//106
f 97//100 122//118 123//119
f 98//93 125//120 99//94
f 97//100 124//121 98//93
f 100//95 125//120 126//122
f 101//96 128//123 102//97
f 102//97 129//124 103//98
f 129//124 104//99 103//98
f 100//95 127//125 101//96
f 123//119 130//126 131//127
f 123//119 132//128 124//121
f 124//121 133//129 125//120
f 126//122 133//129 134//130
f 126//122 135//131 127//125
f 127//125 136//132 128//123
f 128//123 137//133 129//124
f 122//118 137//133 130//126
f 131//127 114//109 115//110
f 131//127 118//112 132//128
f 132//128 119//116 133//129
f 134//130 119//116 111//107
f 134//130 109//105 135//131
f 135//131 105//101 136//132
f 136//132 108//103 137//133
f 130//126 108//103 114//109
f 2//1 3//15 4//2
f 1//3 4//2 6//4
f 7//6 8//9 9//7
f 8//9 5//5 6//4
f 11//10 12//13 13//11
f 7//6 10//8 13//11
f 15//14 16//16 3//15
f 15//14 11//10 14//12
f 18//17 19//43 20//18
f 22//20 23//26 24//21
f 17//19 20//18 26//23
f 22//20 27//33 28//25
f 29//27 30//32 31//28
f 34//29 35//41 36//30
f 30//32 25//24 26//23
f 33//31 36//30 28//25
f 38//34 39//40 40//35
f 41//37 42//47 43//38
f 29//27 32//27 39//40
f 34//29 41//37 44//39
f 18//17 45//46 46//42
f 47//44 21//22 24//21
f 45//46 37//36 40//35
f 47//44 48//45 43//38
f 10//8 49//54 50//48
f 14//12 13//11 50//48
f 16//16 14//12 51//49
f 16//16 52//50 53//51
f 3//15 53//51 54//2
f 4//2 54//2 55//52
f 9//7 6//4 55//52
f 10//8 9//7 56//53
f 49//54 57//62 58//55
f 51//49 50//48 58//55
f 52//50 51//49 59//56
f 52//50 60//57 61//58
f 53//51 61//58 62//59
f 54//2 62//59 63//60
f 56//53 55//52 63//60
f 49//54 56//53 64//61
f 44//39 65//70 66//63
f 35//41 66//63 67//64
f 36//30 67//64 68//65
f 23//26 28//25 68//65
f 23//26 69//66 70//67
f 48//45 24//21 70//67
f 48//45 71//68 72//69
f 44//39 43//38 72//69
f 73//71 74//78 7//6
f 73//71 12//13 11//10
f 76//73 75//72 11//10
f 76//73 15//14 2//1
f 77//74 2//1 1//3
f 78//75 1//3 5//5
f 80//77 79//76 5//5
f 80//77 8//9 7//6
f 32//27 74//78 73//71
f 39//40 73//71 75//72
f 46//42 40//35 75//72
f 46//42 76//73 77//74
f 19//43 77//74 78//75
f 20//18 78//75 79//76
f 31//28 26//23 79//76
f 32//27 31//28 80//77
f 65//70 72//69 59//56
f 65//70 58//55 57//62
f 66//63 57//62 64//61
f 67//64 64//61 63//60
f 69//66 68//65 63//60
f 69//66 62//59 61//58
f 70//67 61//58 60//57
f 71//68 60//57 59//56
f 82//79 83//91 84//80
f 85//82 81//81 84//80
f 88//83 89//85 90//63
f 85//82 86//65 89//85
f 91//86 92//89 93//87
f 87//84 90//63 93//87
f 95//90 96//92 83//91
f 91//86 94//88 96//92
f 90//63 97//100 98//93
f 94//88 93//87 98//93
f 94//88 99//94 100//95
f 96//92 100//95 101//96
f 83//91 101//96 102//97
f 86//65 84//80 102//97
f 86//65 103//98 104//99
f 89//85 104//99 97//100
f 105//101 106//104 107//102
f 106//104 105//101 109//105
f 110//106 109//105 111//107
f 107//102 113//113 114//109
f 115//110 116//114 117//111
f 115//110 114//109 113//113
f 120//115 112//108 111//107
f 119//116 118//112 117//111
f 106//104 110//106 121//117
f 121//117 116//114 113//113
f 121//117 120//115 117//111
f 112//108 120//115 121//117
f 97//100 104//99 122//118
f 98//93 124//121 125//120
f 97//100 123//119 124//121
f 100//95 99//94 125//120
f 101//96 127//125 128//123
f 102//97 128//123 129//124
f 129//124 122//118 104//99
f 100//95 126//122 127//125
f 123//119 122//118 130//126
f 123//119 131//127 132//128
f 124//121 132//128 133//129
f 126//122 125//120 133//129
f 126//122 134//130 135//131
f 127//125 135//131 136//132
f 128//123 136//132 137//133
f 122//118 129//124 137//133
f 131//127 130//126 114//109
f 131//127 115//110 118//112
f 132//128 118//112 119//116
f 134//130 133//129 119//116
f 134//130 111//107 109//105
f 135//131 109//105 105//101
f 136//132 105//101 108//103
f 130//126 137//133 108//103
