# Blender v2.77 (sub 0) OBJ File: 'ThrashCan_open.blend'
# www.blender.org
v 0.613349 -0.000643 -0.419887
v 0.580737 -0.000643 -0.464024
v 0.587995 1.227299 -0.442580
v 0.623279 1.225464 -0.394738
v 0.642804 2.231650 -0.488323
v 0.679895 2.232370 -0.437851
v -0.487128 0.000982 -0.627421
v -0.531268 0.000982 -0.594818
v -0.617133 1.226342 -0.584312
v -0.569342 1.224508 -0.619678
v -0.620984 2.340071 -0.636648
v -0.570795 2.342033 -0.674010
v -0.669507 0.000104 0.459664
v -0.636896 0.000104 0.503810
v -0.731629 1.224563 0.606239
v -0.766913 1.226398 0.558391
v -0.741608 2.343047 0.616552
v -0.778607 2.341085 0.566091
v 0.412537 -0.000820 0.682668
v 0.456683 -0.000820 0.650050
v 0.466113 1.225497 0.680798
v 0.418335 1.227332 0.716165
v 0.501215 2.232566 0.782535
v 0.450928 2.231847 0.819881
v 0.699823 3.120270 -0.594620
v 0.740772 3.121953 -0.539174
v 0.736011 2.996924 -0.532869
v 0.695502 2.995374 -0.587762
v 0.928888 3.131520 0.138489
v 0.918640 3.131520 0.206676
v 0.911908 3.002190 0.205248
v 0.922058 3.002190 0.137763
v 0.543982 3.122090 0.804887
v 0.488550 3.120405 0.845863
v 0.486401 2.995519 0.837865
v 0.541248 2.997068 0.797289
v -0.189142 3.098256 1.002357
v -0.257294 3.095875 0.992121
v -0.251440 2.982262 0.982619
v -0.184009 2.984697 0.992755
v -0.829071 3.074438 0.621311
v -0.870008 3.072755 0.565855
v -0.857532 2.970479 0.560818
v -0.817041 2.972208 0.615716
v -1.053290 3.062939 -0.089537
v -1.043042 3.062939 -0.157719
v -1.028681 2.965386 -0.155263
v -1.038819 2.965386 -0.087773
v -0.696393 3.071752 -0.758819
v -0.640967 3.073438 -0.799790
v -0.630878 2.971203 -0.790721
v -0.685712 2.969472 -0.750155
v 0.037225 3.095873 -0.968598
v 0.105371 3.098255 -0.958356
v 0.107459 2.984696 -0.947668
v 0.040033 2.982260 -0.957799
v 0.872132 3.000824 0.130266
v 0.711975 2.996313 -0.515164
v 0.716492 3.121384 -0.521277
v 0.878443 3.130264 0.130910
v 0.519281 2.996313 0.767641
v 0.861994 3.000824 0.197751
v 0.868195 3.130264 0.199096
v 0.521784 3.121383 0.774922
v -0.180396 2.984700 0.968702
v 0.464435 2.994764 0.808218
v 0.466351 3.119698 0.815903
v -0.185492 3.098259 0.978054
v -0.247821 2.982265 0.958571
v -0.253638 3.095878 0.967818
v -1.017731 2.966316 -0.084606
v -1.031971 3.063873 -0.086337
v -0.664844 2.970479 -0.721972
v -1.007587 2.966316 -0.152096
v -1.021723 3.063873 -0.154518
v -0.675311 3.072755 -0.730344
v 0.034833 2.982266 -0.923043
v -0.610010 2.972208 -0.762544
v -0.619879 3.074439 -0.771315
v 0.031964 3.095879 -0.933476
v 0.671472 2.994764 -0.570053
v 0.102252 2.984700 -0.912921
v 0.100116 3.098260 -0.923240
v 0.675543 3.119698 -0.576723
v 0.658588 1.226398 0.170751
v 0.602350 1.225324 -0.379306
v 0.657849 2.231536 -0.421617
v 0.804096 2.210099 0.170433
v -0.176080 1.224563 0.914010
v 0.399207 1.227158 0.690323
v 0.430768 2.230817 0.792690
v -0.159186 2.288257 0.940011
v -0.906787 1.225324 -0.004233
v -0.925049 2.364918 -0.025946
v 0.011530 1.227158 -0.734930
v -0.551160 1.224563 -0.595126
v -0.551636 2.343047 -0.648173
v 0.038336 2.285558 -0.795498
v 0.849866 2.212094 0.177306
v 0.702057 1.226782 0.177277
v 0.594049 0.000104 -0.405614
v 0.561426 0.000104 -0.449756
v 0.567066 1.227158 -0.427154
v 0.620764 2.230817 -0.472098
v 0.043127 2.285556 -0.827386
v 0.016071 1.227159 -0.765221
v -0.470380 0.000104 -0.604747
v -0.514514 0.000104 -0.572139
v -0.598944 1.226398 -0.559753
v -0.601819 2.341085 -0.610811
v 0.394910 0.000104 0.658801
v 0.439057 0.000104 0.626183
v 0.446985 1.225324 0.654962
v 0.481061 2.231536 0.755343
v -0.162512 2.288256 0.962089
v -0.179236 1.224563 0.934978
v -0.944409 2.364032 -0.028853
v -0.925171 1.225294 -0.006996
v 0.693219 1.226782 0.236106
v 0.755054 -0.001682 0.173860
v 0.763208 -0.001682 0.119587
v 0.840552 2.212094 0.239254
v 0.649756 1.226398 0.229580
v 0.794788 2.210099 0.232377
v -0.237994 1.227159 0.926150
v -0.224286 2.285556 0.952770
v -0.234845 1.227158 0.905182
v -0.220966 2.285557 0.930701
v -0.181445 0.000104 0.799024
v -0.127167 0.000104 0.807174
v -0.935095 2.364032 -0.090835
v -0.916339 1.225294 -0.065830
v -0.897956 1.225324 -0.063067
v -0.915747 2.364918 -0.087923
v -0.807361 0.000859 -0.116336
v -0.815509 0.000859 -0.062058
v 0.104907 2.288256 -0.818134
v 0.074835 1.224564 -0.756397
v 0.070276 1.224563 -0.726106
v 0.100122 2.288258 -0.786252
v 0.107275 0.000104 -0.753581
v 0.053003 0.000104 -0.761732
v -0.798541 0.000104 -0.059511
v -0.178540 0.000104 0.779680
v -0.790393 0.000104 -0.113784
v 0.048804 0.000104 -0.733786
v -0.776331 0.000104 -0.083925
v -0.124262 0.000104 0.787831
v 0.714923 0.000104 0.167834
v -0.148682 0.000104 0.765622
v 0.723084 0.000104 0.113555
v 0.700861 0.000104 0.137969
v 0.103082 0.000104 -0.725630
v 0.073218 0.000104 -0.711578
v -0.037732 0.000104 0.027020
vn 0.8043 0.0056 -0.5942
vn 0.8039 -0.0305 -0.5940
vn 0.8039 -0.0294 -0.5941
vn 0.8025 -0.0978 -0.5886
vn -0.5938 -0.0348 -0.8038
vn -0.5954 -0.0372 -0.8026
vn -0.5938 -0.0348 -0.8039
vn -0.5917 -0.0993 -0.8000
vn -0.5912 -0.1051 -0.7997
vn -0.5444 -0.1114 0.8314
vn -0.9594 -0.0547 0.2767
vn -0.9564 -0.0981 0.2750
vn -0.6494 -0.2211 0.7276
vn -0.9595 -0.0498 0.2771
vn 0.5941 -0.0247 0.8040
vn 0.5923 -0.0595 0.8035
vn 0.5923 -0.0621 0.8033
vn 0.5950 -0.0768 0.8001
vn 0.5951 -0.0771 0.8000
vn 0.8039 -0.0604 -0.5917
vn 0.8004 -0.1214 -0.5871
vn 0.8004 -0.1209 -0.5871
vn 0.9875 -0.0530 0.1484
vn 0.9858 -0.0784 0.1483
vn 0.9859 -0.0781 0.1483
vn 0.5946 -0.0617 0.8017
vn 0.5951 -0.0489 0.8022
vn 0.5945 -0.0617 0.8017
vn -0.1449 -0.0899 0.9854
vn -0.1465 -0.0542 0.9877
vn -0.5405 -0.1069 0.8345
vn -0.9550 -0.1214 0.2706
vn -0.5455 -0.0699 0.8352
vn -0.9780 -0.1477 -0.1470
vn -0.9754 -0.1647 -0.1465
vn -0.5870 -0.1289 -0.7993
vn -0.5801 -0.1917 -0.7917
vn -0.5869 -0.1290 -0.7993
vn 0.1511 -0.0899 -0.9844
vn 0.1526 -0.1682 -0.9739
vn 0.1511 -0.0898 -0.9844
vn 0.9667 -0.0893 -0.2398
vn 0.9696 -0.0462 -0.2403
vn 0.9666 -0.0891 -0.2404
vn 0.8559 -0.0501 0.5147
vn 0.8562 -0.0465 0.5145
vn 0.8563 -0.0471 0.5144
vn 0.2417 -0.0384 0.9696
vn 0.2421 -0.0639 0.9682
vn 0.2430 -0.0688 0.9676
vn -0.5121 -0.0968 0.8534
vn -0.9627 -0.1266 0.2390
vn -0.9527 -0.1315 0.2741
vn -0.9611 -0.1360 0.2405
vn -0.8452 -0.1729 -0.5057
vn -0.8493 -0.1295 -0.5118
vn -0.8452 -0.1674 -0.5075
vn -0.2380 -0.1792 -0.9546
vn -0.2388 -0.0959 -0.9663
vn -0.2440 -0.1700 -0.9548
vn 0.5107 -0.1400 -0.8483
vn 0.5159 -0.0630 -0.8544
vn 0.5077 -0.1357 -0.8508
vn 0.9889 -0.0338 -0.1444
vn 0.9718 -0.0929 -0.2166
vn 0.9940 -0.0420 -0.1014
vn 0.3405 -0.0793 0.9369
vn 0.2654 -0.0451 0.9631
vn 0.2448 -0.0322 0.9690
vn -0.9691 -0.0539 0.2407
vn -0.9694 -0.0560 0.2390
vn -0.2418 -0.0286 -0.9699
vn -0.2498 -0.0954 -0.9636
vn -0.2409 -0.0289 -0.9701
vn 0.1501 -0.0393 -0.9879
vn 0.1484 0.0174 -0.9888
vn 0.1483 0.0204 -0.9887
vn -0.0243 0.9997 -0.0037
vn -0.1485 -0.0032 0.9889
vn -0.1498 0.0464 0.9876
vn 0.1486 -0.0023 -0.9889
vn 0.1499 -0.0532 -0.9873
vn 0.1499 -0.0551 -0.9872
vn -0.0002 -1.0000 0.0001
vn -0.0250 -0.9995 0.0185
vn -0.5937 0.0176 -0.8045
vn -0.5934 0.0070 -0.8049
vn 0.5939 -0.0213 0.8042
vn 0.5935 -0.0105 0.8047
vn 0.5935 -0.0110 0.8047
vn -0.5919 -0.0287 -0.8055
vn -0.5934 0.0076 -0.8049
vn 0.5923 0.0238 0.8054
vn 0.5921 0.0284 0.8054
vn -0.0297 0.9995 -0.0084
vn 0.5929 0.0180 0.8051
vn 0.5914 0.0501 0.8048
vn 0.5930 0.0180 0.8050
vn -0.5928 -0.0237 -0.8050
vn -0.5912 -0.0572 -0.8045
vn -0.5911 -0.0587 -0.8044
vn -0.9889 -0.0018 -0.1486
vn -0.9889 -0.0075 -0.1482
vn -0.9889 -0.0081 -0.1482
vn -0.0341 0.9994 -0.0053
vn 0.9885 0.0321 0.1480
vn 0.9886 0.0253 0.1481
vn 0.9885 0.0321 0.1479
vn -0.9882 -0.0385 -0.1480
vn -0.9884 -0.0332 -0.1480
vn -0.9884 -0.0328 -0.1480
vn -0.0001 -1.0000 -0.0002
vn -0.0185 -0.9995 -0.0250
vn -0.8034 -0.0196 0.5951
vn -0.8039 -0.0613 0.5916
vn -0.8039 -0.0613 0.5915
vn 0.8035 0.0158 -0.5951
vn 0.8041 0.0577 -0.5917
vn 0.8036 0.0144 -0.5951
vn -0.8034 0.0249 0.5949
vn -0.8035 -0.0178 0.5951
vn 0.8035 -0.0300 -0.5946
vn 0.8035 -0.0301 -0.5946
vn -0.0364 0.9993 -0.0082
vn 0.8029 0.0264 -0.5955
vn 0.8038 -0.0234 -0.5945
vn -0.8027 -0.0334 0.5955
vn -0.8037 0.0147 0.5948
vn -0.8037 0.0172 0.5947
vn -0.0002 -1.0000 -0.0002
vn 0.8035 0.0191 -0.5950
vn 0.8045 0.0087 -0.5939
vn -0.8035 -0.0226 0.5948
vn -0.8045 -0.0124 0.5938
vn -0.8035 -0.0236 0.5948
vn 0.8033 0.0060 -0.5956
vn 0.8035 0.0202 -0.5950
vn -0.8031 -0.0109 0.5957
vn -0.8032 -0.0071 0.5957
vn -0.0309 0.9995 -0.0007
vn -0.8030 -0.0243 0.5955
vn -0.8036 0.0158 0.5950
vn 0.8032 0.0186 -0.5955
vn 0.8036 -0.0228 -0.5948
vn 0.8035 -0.0239 -0.5948
vn 0.9888 -0.0019 0.1489
vn 0.9889 0.0036 0.1488
vn 0.9889 0.0052 0.1488
vn -0.0342 0.9994 -0.0050
vn -0.9881 -0.0385 -0.1487
vn -0.9883 -0.0332 -0.1487
vn 0.9884 0.0321 0.1484
vn 0.9886 0.0253 0.1485
vn 0.9886 0.0251 0.1485
vn -0.1486 -0.0217 0.9887
vn -0.1501 0.0377 0.9880
vn -0.1486 -0.0194 0.9887
vn -0.0428 0.9991 -0.0064
vn 0.1486 -0.0030 -0.9889
vn 0.1512 -0.0691 -0.9861
vn -0.1483 -0.0041 0.9889
vn -0.1508 0.0602 0.9867
vn -0.1509 0.0630 0.9865
vn 0.9880 0.0422 0.1484
vn 0.9879 -0.0448 0.1484
vn 0.9878 -0.0468 0.1483
vn 0.9820 -0.1180 0.1476
vn 0.9822 -0.1165 0.1476
vn 0.8933 -0.0635 0.4449
vn 0.8614 -0.0734 0.5027
vn 0.8549 -0.0661 0.5146
vn -0.1500 0.0346 0.9881
vn -0.1483 -0.0209 0.9887
vn -0.1501 0.0382 0.9879
vn -0.1511 -0.0690 0.9861
vn -0.1477 -0.0331 0.9885
vn -0.1511 -0.0663 0.9863
vn -0.5185 -0.0278 0.8546
vn -0.6705 0.1105 0.7337
vn -0.9889 -0.0031 -0.1488
vn -0.9889 -0.0066 -0.1486
vn -0.9889 -0.0042 -0.1488
vn -0.1478 -0.1089 0.9830
vn -0.9876 -0.0509 -0.1483
vn -0.9863 -0.0718 -0.1482
vn -0.9860 -0.0759 -0.1482
vn -0.8562 -0.0394 -0.5151
vn -0.8559 -0.0862 -0.5098
vn -0.8550 -0.0841 -0.5117
vn 0.1488 0.0187 -0.9887
vn 0.1506 -0.0429 -0.9877
vn 0.1506 -0.0412 -0.9877
vn -0.9856 -0.0816 -0.1480
vn -0.9877 -0.0502 -0.1483
vn 0.1473 -0.0279 -0.9887
vn 0.1517 -0.1104 -0.9823
vn 0.1518 -0.1132 -0.9819
vn 0.5070 -0.0954 -0.8567
vn 0.5149 -0.0238 -0.8569
vn 0.5085 -0.1037 -0.8548
vn 0.9889 -0.0031 0.1484
vn 0.9889 0.0039 0.1487
vn 0.9889 0.0001 0.1484
vn 0.1485 0.0017 -0.9889
vn -0.1507 -0.0578 0.9869
vn -0.5144 -0.0632 0.8552
vn -0.9889 -0.0086 -0.1486
vn -0.9885 -0.0302 -0.1485
vn 0.0000 -1.0000 -0.0000
vn -0.8555 -0.0537 -0.5150
vn -0.8560 -0.0389 -0.5154
vn 0.1508 0.0541 -0.9871
vn 0.1486 0.0162 -0.9888
vn -0.2412 -0.0082 -0.9704
vn -0.9884 -0.0302 -0.1485
vn -0.0008 -1.0000 -0.0001
vn -0.0435 -0.9990 -0.0065
vn 0.2768 -0.0418 0.9600
vn 0.3458 -0.0861 0.9343
vn 0.9886 0.0265 0.1485
vn 0.8681 0.0113 0.4962
vn 0.8954 -0.0666 0.4403
vn -0.1507 -0.0576 0.9869
vn -0.1483 -0.0238 0.9887
vn 0.9788 0.0142 -0.2044
vn 0.9705 -0.0014 -0.2412
vn 0.1507 0.0539 -0.9871
vn -0.0024 -1.0000 -0.0004
vn 0.5156 -0.0247 -0.8565
vn 0.5156 0.0134 -0.8567
vn 0.9886 0.0265 0.1483
vn 0.5952 -0.0487 0.8021
vn 0.8034 0.0019 -0.5955
vn -0.1498 0.0481 0.9875
vn 0.1502 -0.0433 -0.9877
vn 0.9677 -0.0812 -0.2386
vn 0.5913 0.0516 0.8048
vn 0.8025 -0.0986 -0.5885
vn -0.5917 -0.0336 -0.8055
vn 0.9887 0.0250 0.1481
vn -0.9889 -0.0054 -0.1486
vn -0.2460 -0.1063 -0.9634
vn 0.8037 -0.0260 -0.5944
vn 0.1513 -0.0719 -0.9859
vn -0.1500 0.0362 0.9880
vn -0.5169 -0.0612 0.8539
vn -0.9883 -0.0330 -0.1488
vn -0.1477 -0.0336 0.9885
vn 0.9889 -0.0010 0.1489
vn 0.2407 -0.0354 0.9700
vn -0.8036 0.0168 0.5950
vn -0.5954 -0.0374 -0.8026
vn 0.8038 -0.0604 -0.5918
vn -0.9754 -0.1644 -0.1465
vn -0.5801 -0.1910 -0.7918
vn 0.1526 -0.1680 -0.9739
vn 0.9696 -0.0468 -0.2401
vn 0.8560 -0.0496 0.5146
vn -0.8481 -0.1356 -0.5123
vn -0.2368 -0.1057 -0.9658
vn 0.5165 -0.0678 -0.8536
vn -0.8046 -0.0124 0.5937
vn 0.8032 0.0186 -0.5954
vn -0.1476 -0.1089 0.9830
vn 0.1471 -0.0298 -0.9887
vn 0.9889 0.0048 0.1488
vn -0.9660 -0.0962 0.2401
vn -0.5125 -0.1106 0.8515
vn -0.8555 -0.0537 -0.5149
vn 0.1509 0.0541 -0.9871
vn 0.2411 -0.0258 0.9702
vn 0.8566 0.0196 0.5156
vn -0.1508 -0.0576 0.9869
vn 0.1508 0.0539 -0.9871
s 1
f 1//1 3//2 4//3
f 3//2 6//4 4//3
f 8//5 10//6 7//7
f 10//6 11//8 12//9
f 14//10 16//11 13//12
f 15//13 18//14 16//11
f 19//15 21//16 22//17
f 22//17 23//18 24//19
f 25//20 27//21 28//22
f 29//23 31//24 32//25
f 34//26 36//27 33//28
f 37//29 39//30 40//30
f 41//31 43//32 44//33
f 46//34 48//35 45//34
f 50//36 52//37 49//38
f 54//39 56//40 53//41
f 58//42 60//43 57//44
f 61//45 63//46 64//47
f 65//48 67//49 68//50
f 44//33 70//51 41//31
f 71//52 42//53 72//54
f 74//55 76//56 73//57
f 78//58 80//59 77//60
f 82//61 84//62 81//63
f 86//64 88//65 85//66
f 89//67 91//68 92//69
f 93//70 18//14 94//71
f 96//72 98//73 95//74
f 88//75 100//76 85//77
f 60//78 30//78 29//78
f 63//79 31//80 30//79
f 60//81 32//82 57//83
f 102//84 1//85 101//84
f 102//86 3//87 2//86
f 101//88 4//89 86//90
f 104//91 3//87 103//92
f 87//93 4//89 6//94
f 59//95 25//95 84//95
f 59//96 27//97 26//98
f 84//99 28//100 81//101
f 98//102 106//103 95//104
f 80//105 54//105 53//105
f 83//106 55//107 54//108
f 80//109 56//110 77//111
f 107//112 8//113 7//113
f 109//114 8//115 108//116
f 96//117 7//118 10//119
f 110//120 9//121 109//114
f 97//122 10//119 12//123
f 76//124 50//124 49//124
f 79//125 51//126 50//125
f 76//127 52//128 73//129
f 111//130 20//113 19//113
f 113//131 20//132 112//132
f 90//133 19//134 22//135
f 114//136 21//137 113//131
f 91//138 22//135 24//139
f 64//140 34//140 33//140
f 67//141 35//142 34//141
f 64//143 36//144 61//145
f 92//146 116//147 89//148
f 70//149 37//149 68//149
f 70//150 39//151 38//150
f 68//152 40//153 65//154
f 93//155 117//156 118//157
f 72//158 46//158 45//158
f 75//159 47//160 46//159
f 72//161 48//162 71//163
f 120//164 100//165 119//166
f 122//167 100//165 99//168
f 113//169 124//170 114//171
f 124//172 119//173 122//174
f 116//175 126//176 125//177
f 15//13 128//178 17//179
f 128//180 125//181 126//182
f 129//183 116//175 125//177
f 132//184 117//185 131//186
f 109//187 134//188 110//189
f 133//190 131//191 134//192
f 132//184 136//193 118//194
f 138//195 105//196 137//197
f 104//198 139//199 140//200
f 140//201 138//202 137//203
f 142//204 138//195 141//204
f 93//70 13//12 16//11
f 93//155 136//205 143//205
f 14//10 127//206 15//13
f 127//207 129//208 125//181
f 13//209 144//209 14//209
f 109//187 145//210 133//211
f 133//190 135//212 132//213
f 95//74 107//214 96//72
f 146//215 106//103 142//215
f 147//209 143//216 145//216
f 145//216 136//217 135//217
f 146//209 108//112 107//112
f 148//218 90//219 89//67
f 89//148 130//220 148//220
f 112//221 123//222 113//169
f 149//223 119//173 123//224
f 148//209 112//112 111//130
f 150//209 148//209 144//209
f 144//209 130//209 129//209
f 86//64 151//225 101//226
f 100//76 151//227 85//77
f 152//209 151//228 149//228
f 151//228 120//217 149//228
f 103//229 153//230 139//199
f 138//202 153//231 141//231
f 151//209 102//84 101//84
f 143//216 150//209 144//209
f 146//209 147//209 145//216
f 152//209 148//209 150//209
f 152//209 153//209 151//228
f 154//209 146//209 153//209
f 141//209 146//209 142//209
f 150//209 147//209 155//209
f 147//209 154//209 155//209
f 154//209 152//209 155//209
f 152//209 150//209 155//209
f 35//232 23//18 36//27
f 61//145 23//233 114//136
f 124//170 61//45 114//171
f 62//234 122//174 31//80
f 31//24 99//168 32//25
f 57//83 99//235 88//75
f 87//236 57//44 88//65
f 58//237 6//94 27//97
f 27//21 5//238 28//22
f 81//101 5//239 104//91
f 140//200 81//63 104//198
f 82//240 137//203 55//107
f 56//40 137//197 105//196
f 77//111 105//241 98//102
f 97//242 77//60 98//73
f 78//243 12//123 51//126
f 52//37 12//9 11//8
f 73//129 11//120 110//120
f 110//189 74//55 73//57
f 74//244 131//191 47//160
f 48//35 131//186 117//185
f 71//163 117//156 94//245
f 94//71 43//32 71//52
f 44//33 18//14 17//179
f 17//179 69//246 44//33
f 69//247 126//182 39//151
f 39//30 115//248 40//30
f 65//154 115//249 92//146
f 92//69 66//250 65//48
f 66//251 24//139 35//142
f 1//1 2//1 3//2
f 3//2 5//238 6//4
f 8//5 9//252 10//6
f 10//6 9//252 11//8
f 14//10 15//13 16//11
f 15//13 17//179 18//14
f 19//15 20//15 21//16
f 22//17 21//16 23//18
f 25//20 26//253 27//21
f 29//23 30//23 31//24
f 34//26 35//232 36//27
f 37//29 38//29 39//30
f 41//31 42//53 43//32
f 46//34 47//254 48//35
f 50//36 51//255 52//37
f 54//39 55//256 56//40
f 58//42 59//257 60//43
f 61//45 62//258 63//46
f 65//48 66//250 67//49
f 44//33 69//246 70//51
f 71//52 43//32 42//53
f 74//55 75//259 76//56
f 78//58 79//260 80//59
f 82//61 83//261 84//62
f 86//64 87//236 88//65
f 89//67 90//219 91//68
f 93//70 16//11 18//14
f 96//72 97//242 98//73
f 88//75 99//235 100//76
f 60//78 63//78 30//78
f 63//79 62//234 31//80
f 60//81 29//81 32//82
f 102//84 2//85 1//85
f 102//86 103//92 3//87
f 101//88 1//88 4//89
f 104//91 5//239 3//87
f 87//93 86//90 4//89
f 59//95 26//95 25//95
f 59//96 58//237 27//97
f 84//99 25//99 28//100
f 98//102 105//241 106//103
f 80//105 83//105 54//105
f 83//106 82//240 55//107
f 80//109 53//109 56//110
f 107//112 108//112 8//113
f 109//114 9//121 8//115
f 96//117 107//118 7//118
f 110//120 11//120 9//121
f 97//122 96//117 10//119
f 76//124 79//124 50//124
f 79//125 78//243 51//126
f 76//127 49//127 52//128
f 111//130 112//112 20//113
f 113//131 21//137 20//132
f 90//133 111//262 19//134
f 114//136 23//233 21//137
f 91//138 90//133 22//135
f 64//140 67//140 34//140
f 67//141 66//251 35//142
f 64//143 33//263 36//144
f 92//146 115//249 116//147
f 70//149 38//149 37//149
f 70//150 69//247 39//151
f 68//152 37//152 40//153
f 93//155 94//245 117//156
f 72//158 75//158 46//158
f 75//159 74//244 47//160
f 72//161 45//161 48//162
f 120//164 121//164 100//165
f 122//167 119//166 100//165
f 113//169 123//222 124//170
f 124//172 123//224 119//173
f 116//175 115//248 126//176
f 15//13 127//206 128//178
f 128//180 127//207 125//181
f 129//183 130//264 116//175
f 132//184 118//194 117//185
f 109//187 133//211 134//188
f 133//190 132//213 131//191
f 132//184 135//193 136//193
f 138//195 106//265 105//196
f 104//198 103//229 139//199
f 140//201 139//266 138//202
f 142//204 106//265 138//195
f 93//70 143//267 13//12
f 93//155 118//157 136//205
f 14//10 144//268 127//206
f 127//207 144//208 129//208
f 13//209 143//216 144//209
f 109//187 108//269 145//210
f 133//190 145//270 135//212
f 95//74 146//214 107//214
f 146//215 95//104 106//103
f 145//216 143//216 136//217
f 146//209 145//216 108//112
f 148//218 111//271 90//219
f 89//148 116//147 130//220
f 112//221 149//272 123//222
f 149//223 120//273 119//173
f 148//209 149//209 112//112
f 144//209 148//209 130//209
f 86//64 85//66 151//225
f 100//76 121//274 151//227
f 151//228 121//217 120//217
f 103//229 102//230 153//230
f 138//202 139//266 153//231
f 151//209 153//209 102//84
f 143//216 147//209 150//209
f 146//209 154//209 147//209
f 152//209 149//228 148//209
f 152//209 154//209 153//209
f 141//209 153//209 146//209
f 35//232 24//19 23//18
f 61//145 36//144 23//233
f 124//170 62//258 61//45
f 62//234 124//172 122//174
f 31//24 122//167 99//168
f 57//83 32//82 99//235
f 87//236 58//42 57//44
f 58//237 87//93 6//94
f 27//21 6//4 5//238
f 81//101 28//100 5//239
f 140//200 82//61 81//63
f 82//240 140//201 137//203
f 56//40 55//256 137//197
f 77//111 56//110 105//241
f 97//242 78//58 77//60
f 78//243 97//122 12//123
f 52//37 51//255 12//9
f 73//129 52//128 11//120
f 110//189 134//188 74//55
f 74//244 134//192 131//191
f 48//35 47//254 131//186
f 71//163 48//162 117//156
f 94//71 18//14 43//32
f 44//33 43//32 18//14
f 17//179 128//178 69//246
f 69//247 128//180 126//182
f 39//30 126//176 115//248
f 65//154 40//153 115//249
f 92//69 91//68 66//250
f 66//251 91//138 24//139
